# AST/ASF file generated using VICON BodyLanguage
# -----------------------------------------------
:version 1.10
:name VICON
:units
  mass 1.0
  length 0.45
  angle deg
:documentation
   .ast/.asf automatically generated from VICON data using
   VICON BodyBuilder and BodyLanguage model FoxedUp or BRILLIANT.MOD
:root
   order TX TY TZ RX RY RZ
   axis XYZ
   position 0 0 0  
   orientation 0 0 0 
:bonedata
  begin
     id 1 
     name lhipjoint
     direction 0.64773 -0.699417 0.302095 
     length 2.48597 
     axis 0 0 0  XYZ
  end
  begin
     id 2 
     name lfemur
     direction 0.34202 -0.939693 0  
     length 6.71947  
     axis 0 0 20  XYZ
    dof rx ry rz
    limits (-160.0 20.0)
           (-70.0 70.0)
           (-60.0 70.0)
  end
  begin
     id 3 
     name ltibia
     direction 0.34202 -0.939693 0   
     length 8.08777   
     axis 0 0 20   XYZ
    dof rx
    limits (-10.0 170.0)
  end
  begin
     id 4 
     name lfoot
     direction 0.0808503 -0.222134 0.971658   
     length 2.08264   
     axis -90 7.62852e-016 20   XYZ
    dof rx rz
    limits (-45.0 90.0)
           (-70.0 20.0)
  end
  begin
     id 5 
     name ltoes
     direction 1.53502e-011 -4.22007e-011 1   
     length 1.04662   
     axis -90 7.62852e-016 20   XYZ
    dof rx
    limits (-90.0 20.0)
  end
  begin
     id 6 
     name rhipjoint
     direction -0.610924 -0.726792 0.313919   
     length 2.39233  
     axis 0 0 0  XYZ 
  end
  begin
     id 7 
     name rfemur
     direction -0.34202 -0.939693 0   
     length 6.96955   
     axis 0 0 -20   XYZ
    dof rx ry rz
    limits (-160.0 20.0)
           (-70.0 70.0)
           (-70.0 60.0)
  end
  begin
     id 8 
     name rtibia
     direction -0.34202 -0.939693 0   
     length 8.19584   
     axis 0 0 -20   XYZ
    dof rx
    limits (-10.0 170.0)
 end
 begin
     id 9 
     name rfoot
     direction -0.077777 -0.213691 0.9738   
     length 2.07539  
     axis -90 -7.62852e-016 -20   XYZ
    dof rx rz
    limits (-45.0 90.0)
           (-20.0 70.0)
  end
  begin
     id 10 
     name rtoes
     direction -1.53558e-011 -4.22006e-011 1   
     length 1.04381   
     axis -90 -7.62852e-016 -20   XYZ
    dof rx
    limits (-90.0 20.0)
  end
  begin
     id 11 
     name lowerback
     direction -0.00971646 0.996074 0.0879841   
     length 1.67643   
     axis 0 0 0   XYZ
    dof rx ry rz
    limits (-20.0 45.0)
           (-30.0 30.0)
           (-30.0 30.0)
  end
  begin
     id 12 
     name upperback
     direction 0.0127391 0.991676 0.128127   
     length 1.63741   
     axis 0 0 0   XYZ
    dof rx ry rz
    limits (-20.0 45.0)
           (-30.0 30.0)
           (-30.0 30.0)
  end
  begin
     id 13 
     name thorax
     direction 0.0167583 0.996049 0.0872067   
     length 1.65931   
     axis 0 0 0   XYZ
    dof rx ry rz
    limits (-20.0 45.0)
           (-30.0 30.0)
           (-30.0 30.0)
  end
  begin
     id 14 
     name lowerneck
     direction -0.0317829 0.998312 0.0486079   
     length 1.79021   
     axis 0 0 0   XYZ
    dof rx ry rz
    limits (-20.0 45.0)
           (-30.0 30.0)
           (-30.0 30.0)
  end
  begin
     id 15 
     name upperneck
     direction 0.0896851 0.972452 -0.215159   
     length 1.78797   
     axis 0 0 0   XYZ
    dof rx ry rz
    limits (-20.0 45.0)
           (-30.0 30.0)
           (-30.0 30.0)
  end
  begin
     id 16
     name head
     direction 0.0310949 0.996503 -0.0775582  
     length 1.81549  
     axis 0 0 0   XYZ
    dof rx ry rz
    limits (-20.0 45.0)
           (-30.0 30.0)
           (-30.0 30.0)
  end
  begin
     id 17 
     name lclavicle
     direction 0.853638 0.502051 -0.138733  
     length 3.31627  
     axis 0 0 0   XYZ
    dof ry rz
    limits (-20.0 10.0)
           (0.0 20.0)
  end
  begin
     id 18 
     name lhumerus
     direction 1 -4.48962e-011 -1.41788e-018   
     length 5.54893   
     axis 180 -30 -90   XYZ
    dof rx ry rz
    limits (-60.0 90.0)
           (-90.0 90.0)
           (-90.0 90.0)
  end
  begin
     id 19
     name lradius
     direction 1 -4.48962e-011 -4.95754e-027   
     length 3.02898   
     axis 180 -30 -90   XYZ
    dof rx
    limits (-10.0 170.0)
  end
  begin
     id 20
     name lwrist
     direction 1 -4.48952e-011 -1.03764e-026   
     length 1.51449   
     axis 9.09556e-015 90 90   XYZ
    dof ry
    limits (-180.0 0.0)
 end
  begin
     id 21 
     name lhand
     direction 1 -4.4902e-011 -2.07528e-026   
     length 0.640951   
     axis 1.3242e-014 90 90   XYZ
    dof rx rz
    limits (-90.0 90.0)
           (-45.0 45.0)
  end
  begin
     id 22 
     name lfingers
     direction 1 -4.49014e-011 -4.15056e-026   
     length 0.516751   
     axis 2.64841e-014 90 90   XYZ
    dof rx
    limits (0.0 90.0)
  end
  begin
     id 23
     name lthumb
     direction 0.707107 -6.35008e-011 0.707107   
     length 0.741954   
     axis -90 45 2.85299e-015   XYZ
    dof rx rz
    limits (-45.0 45.0)
           (-45.0 45.0)
  end
  begin
     id 24 
     name rclavicle
     direction -0.888531 0.455324 -0.0565039   
     length 3.20126  
     axis 0 0 0   XYZ 
    dof ry rz
    limits (-10.0 20.0)
           (-20.0 0.0)
  end
  begin
     id 25 
     name rhumerus
     direction -1 -4.48946e-011 -8.98298e-028  
     length 5.3519   
     axis 180 30 90   XYZ
    dof rx ry rz
    limits (-90.0 60.0)
           (-90.0 90.0)
           (-90.0 90.0)
  end
  begin
     id 26 
     name rradius
     direction -1 -4.4899e-011 -3.18779e-027   
     length 3.02531   
     axis 180 30 90   XYZ
    dof rx
    limits (-10.0 170.0)
  end
  begin
     id 27 
     name rwrist
     direction -1 -4.4897e-011 -1.03764e-026   
     length 1.51266   
     axis 9.09556e-015 -90 -90   XYZ
    dof ry
    limits (-180.0 0.0)
  end
  begin
     id 28
     name rhand
     direction -1 -4.48941e-011 -2.07528e-026   
     length 0.78389   
     axis 1.3242e-014 -90 -90   XYZ
    dof rx rz
    limits (-90.0 90.0)
           (-45.0 45.0)
  end
  begin
     id 29
     name rfingers
     direction -1 -4.49012e-011 -4.15056e-026   
     length 0.631992   
     axis 2.64841e-014 -90 -90   XYZ
    dof rx
    limits (0.0 90.0)
  end
  begin
     id 30
     name rthumb
     direction -0.707107 -6.3496e-011 0.707107   
     length 0.907418   
     axis -90 -45 -2.85299e-015   XYZ
    dof rx rz
    limits (-45.0 45.0)
           (-45.0 45.0)
  end
:hierarchy
  begin
    root lhipjoint rhipjoint lowerback
    lhipjoint lfemur
    lfemur ltibia
    ltibia lfoot
    lfoot ltoes
    rhipjoint rfemur
    rfemur rtibia
    rtibia rfoot
    rfoot rtoes
    lowerback upperback
    upperback thorax
    thorax lowerneck lclavicle rclavicle
    lowerneck upperneck
    upperneck head
    lclavicle lhumerus
    lhumerus lradius
    lradius lwrist
    lwrist lhand lthumb
    lhand lfingers
    rclavicle rhumerus
    rhumerus rradius
    rradius rwrist
    rwrist rhand rthumb
    rhand rfingers
  end

#!OML:ASF E:\Style3\Style3.ASF
:FULLY-SPECIFIED
:DEGREES
2104
root 0.575993 17.8345 0.750787 42.9621 91.4209 26.9852
lowerback -11.4913 -2.51764 -0.241313
upperback -11.225 -2.60945 1.77088
thorax -5.29136 -0.936718 1.79009
lowerneck -11.1974 -2.71301 -6.09629
upperneck 22.6475 -4.16182 8.42725
head 9.25092 -1.42625 3.49149
rclavicle 7.60351e-015 1.19271e-015
rhumerus -21.3384 36.8526 -92.4616
rradius 51.4562
rwrist -41.9506
rhand -36.0668 13.4468
rfingers 7.12502
rthumb -9.17425 -16.3337
lclavicle 7.60351e-015 1.19271e-015
lhumerus -23.7202 -28.3544 92.9188
lradius 60.2512
lwrist 61.9378
lhand -33.6196 38.2974
lfingers 7.12502
lthumb -6.81233 68.1678
rfemur -14.1457 11.6628 18.8597
rtibia 14.3334
rfoot -15.1605 -21.6625
rtoes -13.8156
lfemur 0 0 0
ltibia 0
lfoot 0 0
ltoes 0
2105
root 0.56889 17.8345 0.750182 39.6342 91.4867 23.6864
lowerback -11.4698 -2.57369 -0.257384
upperback -11.3191 -2.67325 1.76377
thorax -5.40377 -0.963027 1.79026
lowerneck -11.1401 -2.67642 -6.05746
upperneck 23.1155 -4.1023 8.30841
head 9.39496 -1.39566 3.46246
rclavicle -3.42904e-015 -6.36111e-015
rhumerus -19.5815 37.9783 -91.1411
rradius 52.2567
rwrist -42.7794
rhand -35.8849 12.7658
rfingers 7.12502
rthumb -8.99875 -17.0223
lclavicle -3.42904e-015 -6.36111e-015
lhumerus -22.1562 -29.4111 91.6825
lradius 61.3985
lwrist 62.5895
lhand -33.5489 39.1829
lfingers 7.12502
lthumb -6.74415 69.0555
rfemur -14.1326 11.6621 18.8213
rtibia 14.3294
rfoot -15.1297 -21.7548
rtoes -13.8493
lfemur 0 0 0
ltibia 0
lfoot 0 0
ltoes 0
2106
root 0.561555 17.8354 0.750966 42.3614 91.523 26.4287
lowerback -11.5682 -2.56624 -0.156284
upperback -11.339 -2.66584 1.76209
thorax -5.37737 -0.964547 1.7295
lowerneck -11.1622 -2.66013 -6.02538
upperneck 23.5457 -4.08452 8.2689
head 9.54728 -1.37629 3.45661
rclavicle -8.44835e-016 9.14409e-015
rhumerus -17.3408 39.1147 -89.5285
rradius 52.9858
rwrist -43.9513
rhand -35.7198 11.7477
rfingers 7.12502
rthumb -8.8394 -18.0472
lclavicle -8.44835e-016 9.14409e-015
lhumerus -20.2021 -30.4354 90.1804
lradius 62.3195
lwrist 62.674
lhand -32.4044 39.8396
lfingers 7.12502
lthumb -5.63922 69.7445
rfemur -14.1223 11.6593 18.9114
rtibia 14.2889
rfoot -15.0498 -21.7489
rtoes -14.0529
lfemur 0 0 0
ltibia 0
lfoot 0 0
ltoes 0
2107
root 0.558709 17.8348 0.748789 44.0007 91.4552 28.1279
lowerback -11.6814 -2.54143 -0.103495
upperback -11.3625 -2.63244 1.74423
thorax -5.34598 -0.950343 1.68011
lowerneck -11.142 -2.62474 -5.95792
upperneck 24.0159 -4.03482 8.17567
head 9.70222 -1.34402 3.43093
rclavicle 2.33075e-014 -1.19271e-015
rhumerus -15.0396 40.2649 -87.7515
rradius 53.8684
rwrist -45.2029
rhand -35.6525 10.764
rfingers 7.12502
rthumb -8.77449 -19.0336
lclavicle 2.33075e-014 -1.19271e-015
lhumerus -18.069 -31.4586 88.5067
lradius 63.0131
lwrist 62.3665
lhand -32.439 40.3849
lfingers 7.12502
lthumb -5.67262 70.289
rfemur -14.0474 11.7713 18.8966
rtibia 14.2456
rfoot -15.0301 -21.7742
rtoes -13.943
lfemur 0 0 0
ltibia 0
lfoot 0 0
ltoes 0
2108
root 0.560378 17.8331 0.746635 52.3266 91.2955 36.5689
lowerback -11.7696 -2.44897 -0.00408959
upperback -11.4006 -2.51048 1.75802
thorax -5.34765 -0.892773 1.64551
lowerneck -11.1328 -2.61309 -5.90428
upperneck 24.6302 -3.99495 7.99374
head 9.91155 -1.32349 3.37896
rclavicle -3.53837e-014 7.55382e-015
rhumerus -12.7581 41.1737 -85.8602
rradius 54.9047
rwrist -46.3286
rhand -35.6312 9.95059
rfingers 7.12502
rthumb -8.75394 -19.8479
lclavicle -3.53837e-014 7.55382e-015
lhumerus -15.832 -32.3139 86.7739
lradius 63.7354
lwrist 62.3042
lhand -32.1596 40.4823
lfingers 7.12502
lthumb -5.40278 70.3934
rfemur -13.9379 11.7337 18.9657
rtibia 14.228
rfoot -14.9266 -21.5121
rtoes -14.1259
lfemur 0 0 0
ltibia 0
lfoot 0 0
ltoes 0
2109
root 0.557276 17.8318 0.747021 62.4492 91.1946 46.7833
lowerback -11.8475 -2.35642 0.0386863
upperback -11.4033 -2.38775 1.79362
thorax -5.31225 -0.831792 1.66516
lowerneck -11.2221 -2.63556 -5.82427
upperneck 25.1846 -3.98989 7.75441
head 10.122 -1.32417 3.29527
rclavicle 8.89561e-015 -1.98785e-015
rhumerus -10.1084 41.9122 -83.6458
rradius 55.8988
rwrist -47.4487
rhand -35.654 9.09529
rfingers 7.12502
rthumb -8.77596 -20.7023
lclavicle 8.89561e-015 -1.98785e-015
lhumerus -13.2624 -33.3276 84.7808
lradius 64.491
lwrist 62.8199
lhand -31.5454 40.1181
lfingers 7.12502
lthumb -4.80978 70.0435
rfemur -13.8979 11.7001 19.049
rtibia 14.2617
rfoot -14.8766 -21.2577
rtoes -14.3923
lfemur 0 0 0
ltibia 0
lfoot 0 0
ltoes 0
2110
root 0.551016 17.8292 0.746131 65.7868 91.1638 50.1962
lowerback -11.8664 -2.34739 0.0377481
upperback -11.4461 -2.36978 1.82028
thorax -5.34851 -0.819243 1.69525
lowerneck -11.2095 -2.62883 -5.78801
upperneck 25.6486 -3.95437 7.60322
head 10.2816 -1.30854 3.25234
rclavicle 8.34896e-015 7.15625e-015
rhumerus -7.24718 42.554 -81.331
rradius 56.673
rwrist -48.2383
rhand -35.2991 8.05391
rfingers 7.12502
rthumb -8.43341 -21.7577
lclavicle 8.34896e-015 7.15625e-015
lhumerus -10.6284 -34.2016 82.6466
lradius 65.3196
lwrist 63.498
lhand -31.5787 40.522
lfingers 7.12502
lthumb -4.84189 70.4467
rfemur -13.864 11.7335 19.0624
rtibia 14.3031
rfoot -14.8974 -21.2105
rtoes -14.4809
lfemur 0 0 0
ltibia 0
lfoot 0 0
ltoes 0
2111
root 0.544344 17.8292 0.746603 63.6394 91.141 48.0945
lowerback -11.8414 -2.39244 0.0191014
upperback -11.5286 -2.42004 1.81462
thorax -5.45086 -0.839515 1.6988
lowerneck -11.0762 -2.57513 -5.72357
upperneck 26.0217 -3.86257 7.47345
head 10.3806 -1.26527 3.21715
rclavicle 8.94531e-015 -1.59028e-015
rhumerus -4.42121 43.0189 -79.023
rradius 57.4294
rwrist -48.7408
rhand -35.021 6.63627
rfingers 7.12502
rthumb -8.16505 -23.186
lclavicle 8.94531e-015 -1.59028e-015
lhumerus -7.89114 -34.8193 80.2983
lradius 66.0814
lwrist 64.4001
lhand -31.4451 41.3039
lfingers 7.12502
lthumb -4.7129 71.2315
rfemur -13.8557 11.8295 19.0208
rtibia 14.352
rfoot -14.8942 -21.3407
rtoes -14.5185
lfemur 0 0 0
ltibia 0
lfoot 0 0
ltoes 0
2112
root 0.536889 17.8305 0.747045 61.236 91.1132 45.7377
lowerback -11.8233 -2.42198 -0.0260444
upperback -11.6121 -2.44694 1.81875
thorax -5.54979 -0.845444 1.7289
lowerneck -11.0157 -2.54364 -5.72538
upperneck 26.5209 -3.79403 7.37607
head 10.5454 -1.23121 3.20594
rclavicle 3.02153e-014 -3.18055e-015
rhumerus -1.4818 43.4434 -76.4441
rradius 58.3267
rwrist -49.4928
rhand -34.7866 5.42864
rfingers 7.12502
rthumb -7.9388 -24.4023
lclavicle 3.02153e-014 -3.18055e-015
lhumerus -5.09802 -35.2272 77.9079
lradius 66.7063
lwrist 64.9202
lhand -30.8874 42.2805
lfingers 7.12502
lthumb -4.17441 72.2194
rfemur -13.8692 11.869 18.9641
rtibia 14.409
rfoot -14.9244 -21.385
rtoes -14.3523
lfemur 0 0 0
ltibia 0
lfoot 0 0
ltoes 0
2113
root 0.53145 17.8312 0.745636 61.56 91.106 46.0446
lowerback -11.9541 -2.43032 -0.00670699
upperback -11.6571 -2.45082 1.84654
thorax -5.52801 -0.844292 1.74362
lowerneck -11.1213 -2.54643 -5.71125
upperneck 27.1123 -3.75575 7.20878
head 10.7803 -1.21439 3.16487
rclavicle -2.83268e-014 7.55382e-015
rhumerus 1.74546 43.6946 -73.6725
rradius 59.0869
rwrist -50.3323
rhand -34.5813 4.67457
rfingers 7.12502
rthumb -7.74064 -25.1637
lclavicle -2.83268e-014 7.55382e-015
lhumerus -2.13321 -35.5575 75.4159
lradius 67.1683
lwrist 65.3605
lhand -29.8372 43.4345
lfingers 7.12502
lthumb -3.16027 73.3908
rfemur -13.9505 11.8296 18.9437
rtibia 14.4523
rfoot -14.8219 -21.3848
rtoes -14.5614
lfemur 0 0 0
ltibia 0
lfoot 0 0
ltoes 0
2114
root 0.522413 17.8328 0.747508 56.7958 91.1899 41.1194
lowerback -12.1378 -2.50897 -0.0583913
upperback -11.7479 -2.53511 1.91279
thorax -5.52088 -0.873878 1.83172
lowerneck -11.1674 -2.55863 -5.76279
upperneck 27.5418 -3.72206 7.06685
head 10.9471 -1.20919 3.1391
rclavicle -1.00386e-014 5.1684e-015
rhumerus 5.05135 43.7246 -70.862
rradius 59.8048
rwrist -51.2426
rhand -34.3482 4.06887
rfingers 7.12502
rthumb -7.51569 -25.7776
lclavicle -1.00386e-014 5.1684e-015
lhumerus 0.897753 -35.7138 72.8943
lradius 67.5354
lwrist 65.6372
lhand -29.0603 44.6401
lfingers 7.12502
lthumb -2.40998 74.6062
rfemur -14.152 11.978 18.8911
rtibia 14.4514
rfoot -14.7944 -21.6914
rtoes -13.9709
lfemur 0 0 0
ltibia 0
lfoot 0 0
ltoes 0
2115
root 0.529293 17.8307 0.744614 64.8149 91.0835 49.226
lowerback -12.2504 -2.47483 -0.0479428
upperback -11.7422 -2.48729 1.9817
thorax -5.45275 -0.8474 1.89786
lowerneck -11.1939 -2.54449 -5.81451
upperneck 27.9256 -3.64682 6.91684
head 11.0905 -1.18794 3.11431
rclavicle 4.87022e-015 -7.95139e-016
rhumerus 8.34581 43.6415 -68.0442
rradius 60.4666
rwrist -52.1762
rhand -34.0969 3.44343
rfingers 7.12502
rthumb -7.2731 -26.4116
lclavicle 4.87022e-015 -7.95139e-016
lhumerus 3.89756 -35.7376 70.3259
lradius 67.9463
lwrist 66.2161
lhand -29.9114 45.5477
lfingers 7.12502
lthumb -3.2319 75.503
rfemur -14.0603 11.9636 18.9133
rtibia 14.4578
rfoot -14.7856 -21.5049
rtoes -13.8382
lfemur 0 0 0
ltibia 0
lfoot 0 0
ltoes 0
2116
root 0.525093 17.8329 0.744674 59.385 91.1416 43.7789
lowerback -12.1852 -2.53001 -0.0861419
upperback -11.8587 -2.54427 2.00298
thorax -5.61227 -0.86607 1.94231
lowerneck -11.1841 -2.55506 -5.78501
upperneck 28.3894 -3.62505 6.77307
head 11.2612 -1.17927 3.07354
rclavicle -1.40143e-014 1.59028e-015
rhumerus 11.4149 43.2214 -65.4347
rradius 61.1165
rwrist -53.0797
rhand -33.7949 2.88052
rfingers 7.12502
rthumb -6.98159 -26.9843
lclavicle -1.40143e-014 1.59028e-015
lhumerus 6.87028 -35.6264 67.7987
lradius 68.2979
lwrist 67.0433
lhand -30.3413 45.6991
lfingers 7.12502
lthumb -3.64707 75.6477
rfemur -14.0774 11.8467 18.9069
rtibia 14.4741
rfoot -14.8857 -21.448
rtoes -13.4924
lfemur 0 0 0
ltibia 0
lfoot 0 0
ltoes 0
2117
root 0.523552 17.8333 0.745258 56.4402 91.1617 40.7633
lowerback -12.2685 -2.5584 -0.124864
upperback -11.9548 -2.56561 2.01364
thorax -5.67051 -0.867474 1.97292
lowerneck -11.1089 -2.55534 -5.73636
upperneck 28.732 -3.59066 6.62163
head 11.3718 -1.16733 3.02443
rclavicle -1.19271e-015 3.97569e-016
rhumerus 14.4129 42.5238 -62.9056
rradius 61.6918
rwrist -53.8884
rhand -33.3556 2.18965
rfingers 7.12502
rthumb -6.55751 -27.6888
lclavicle -1.19271e-015 3.97569e-016
lhumerus 9.83506 -35.2885 65.3252
lradius 68.4848
lwrist 67.754
lhand -29.7892 46.143
lfingers 7.12502
lthumb -3.11386 76.1
rfemur -14.1617 11.783 18.8902
rtibia 14.5023
rfoot -14.846 -21.432
rtoes -14.1402
lfemur 0 0 0
ltibia 0
lfoot 0 0
ltoes 0
2118
root 0.528113 17.8336 0.744026 59.2902 91.1063 43.548
lowerback -12.4643 -2.51684 -0.0918226
upperback -11.9956 -2.50483 1.9946
thorax -5.61417 -0.836619 1.93314
lowerneck -11.1646 -2.57989 -5.70937
upperneck 29.1166 -3.60357 6.54177
head 11.5318 -1.16868 3.00047
rclavicle 5.86415e-015 -1.11319e-014
rhumerus 17.4256 41.6023 -60.576
rradius 62.0783
rwrist -54.4118
rhand -33.0632 1.34298
rfingers 7.12502
rthumb -6.27523 -28.5441
lclavicle 5.86415e-015 -1.11319e-014
lhumerus 12.7613 -34.8359 62.8938
lradius 68.6875
lwrist 68.529
lhand -29.5299 47.0613
lfingers 7.12502
lthumb -2.8635 77.0219
rfemur -14.2325 11.8421 18.8647
rtibia 14.5127
rfoot -14.7925 -21.4281
rtoes -14.705
lfemur 0 0 0
ltibia 0
lfoot 0 0
ltoes 0
